<?xml version="1.0" standalone="no"?>
<!DOCTYPE svg PUBLIC "-//W3C//DTD SVG 20010904//EN"
 "http://www.w3.org/TR/2001/REC-SVG-20010904/DTD/svg10.dtd">
<svg version="1.0" xmlns="http://www.w3.org/2000/svg"
 width="520.000000pt" height="546.000000pt" viewBox="0 0 520.000000 546.000000"
 preserveAspectRatio="xMidYMid meet">
<metadata>
Created by potrace 1.16, written by Peter Selinger 2001-2019
</metadata>
<g transform="translate(0.000000,546.000000) scale(0.100000,-0.100000)"
fill="#000000" stroke="none">
<path d="M2698 5190 c-47 -14 -85 -48 -110 -98 -20 -41 -23 -61 -23 -167 0
-94 4 -128 18 -156 23 -46 63 -83 106 -98 24 -8 207 -11 615 -10 662 0 645 -2
701 77 29 42 30 48 33 165 2 71 -1 137 -7 159 -15 50 -57 97 -106 119 -37 17
-78 19 -620 18 -319 0 -592 -4 -607 -9z"/>
<path d="M305 2780 c-16 -8 -40 -30 -52 -49 -22 -32 -23 -44 -23 -198 0 -182
8 -216 58 -252 23 -16 45 -21 94 -21 l64 0 63 -487 c70 -543 73 -573 137
-1103 24 -206 47 -385 50 -398 l4 -22 1870 2 c1652 3 1871 5 1874 18 2 8 59
459 127 1003 l123 987 66 0 c54 0 73 4 95 22 47 37 55 72 55 250 0 178 -8 206
-65 244 -24 15 -182 17 -2268 18 -1975 1 -2246 -1 -2272 -14z m2403 -1052 l2
-268 -140 0 -140 0 0 263 c0 145 3 267 7 271 4 3 66 5 137 4 l131 -3 3 -267z
m662 2 l0 -270 -135 0 -135 0 0 263 c0 145 3 267 7 270 3 4 64 7 135 7 l128 0
0 -270z m670 0 l0 -270 -135 0 -135 0 0 270 0 270 135 0 135 0 0 -270z m-2670
-5 l0 -265 -135 0 -135 0 0 265 0 265 135 0 135 0 0 -265z m670 0 l0 -265
-135 0 -135 0 0 265 0 265 135 0 135 0 0 -265z m668 -797 l2 -268 -140 0 -140
0 0 263 c0 145 3 267 7 271 4 3 66 5 137 4 l131 -3 3 -267z m662 2 l0 -270
-135 0 -135 0 0 263 c0 145 3 267 7 270 3 4 64 7 135 7 l128 0 0 -270z m668
-2 l2 -268 -135 0 -135 0 0 270 0 271 133 -3 132 -3 3 -267z m-2668 -3 l0
-265 -135 0 -135 0 0 265 0 265 135 0 135 0 0 -265z m670 0 l0 -265 -135 0
-135 0 0 265 0 265 135 0 135 0 0 -265z"/>
</g>
</svg>
